<?xml version="1.0" encoding="UTF-8" standalone="no"?>
<!-- Created with Inkscape (http://www.inkscape.org/) -->

<svg
   width="320"
   height="320"
   viewBox="0 0 84.666665 84.666666"
   version="1.1"
   id="svg1"
   xml:space="preserve"
   inkscape:version="1.4.2 (f4327f4, 2025-05-13)"
   sodipodi:docname="icon.svg"
   inkscape:export-filename="icon.png"
   inkscape:export-xdpi="96"
   inkscape:export-ydpi="96"
   xmlns:inkscape="http://www.inkscape.org/namespaces/inkscape"
   xmlns:sodipodi="http://sodipodi.sourceforge.net/DTD/sodipodi-0.dtd"
   xmlns="http://www.w3.org/2000/svg"
   xmlns:svg="http://www.w3.org/2000/svg"><sodipodi:namedview
     id="namedview1"
     pagecolor="#ffffff"
     bordercolor="#000000"
     borderopacity="0.25"
     inkscape:showpageshadow="2"
     inkscape:pageopacity="0.0"
     inkscape:pagecheckerboard="0"
     inkscape:deskcolor="#d1d1d1"
     inkscape:document-units="mm"
     inkscape:zoom="0.75811588"
     inkscape:cx="207.75188"
     inkscape:cy="261.83332"
     inkscape:window-width="1920"
     inkscape:window-height="1111"
     inkscape:window-x="-9"
     inkscape:window-y="-9"
     inkscape:window-maximized="1"
     inkscape:current-layer="layer1" /><defs
     id="defs1" /><g
     inkscape:label="Layer 1"
     inkscape:groupmode="layer"
     id="layer1"><g
       style="fill:none"
       id="g1"
       transform="matrix(1.3874478,0,0,1.3874478,8.6851008,7.999032)"><path
         d="m 37.6988,6 c -0.5268,0.53445 -2.4595,2.67227 -3.6892,3.74118 -0.1757,0.53442 2.1082,2.67222 2.6352,3.20672 0.527,0.5345 6.851,-3.20672 6.324,-3.74118 C 42.5472,8.77916 39.2798,6.89076 37.6988,6 Z"
         stroke="#000000"
         stroke-width="4"
         stroke-linecap="round"
         stroke-linejoin="round"
         id="path1" /><path
         d="m 11.3719,16.7218 c -0.0119,-0.0877 -0.0217,-0.1755 -0.0295,-0.2632 -1.8865,1.8308 -3.32593,3.9321 -4.2997,6.1416 1.59313,0.3339 2.78951,1.7468 2.78951,3.4392 0,1.9406 -1.57321,3.5138 -3.51387,3.5138 -0.26876,0 -0.53047,-0.0301 -0.78194,-0.0873 -0.02065,3.5461 1.14885,6.9549 3.58014,9.6013 3.50456,3.8146 8.80916,5.1509 14.03036,4.0643 3.2128,-0.6686 6.3941,-2.2546 9.1049,-4.7451 1.3436,-1.2343 2.4755,-2.6026 3.3897,-4.0516 -2.2244,0.67 -4.6747,-0.4119 -5.6007,-2.5974 -0.4622,-1.0909 -1.421,-1.8928 -2.5764,-2.155 l -1.6827,-0.3818 c -1.9309,-0.4382 -3.5192,-1.8049 -4.2404,-3.6489 l -0.0906,-0.2316 c -0.7919,-2.0246 -2.6871,-3.4055 -4.857,-3.5388 -2.6603,-0.1635 -4.834,-2.1847 -5.1903,-4.8261 z"
         fill="#2f88ff"
         stroke="#000000"
         stroke-width="4"
         stroke-linecap="round"
         stroke-linejoin="round"
         id="path2" /><path
         d="m 13.1544,11.6583 -0.2517,0.2691 c -1.2041,1.2873 -1.766,3.0476 -1.5303,4.7944 l 0.0315,0.2335 c 0.3563,2.6414 2.53,4.6625 5.1903,4.826 2.1699,0.1334 4.065,1.5142 4.8569,3.5388 l 0.0906,0.2316 c 0.7213,1.844 2.3096,3.2107 4.2405,3.6489 l 1.6827,0.3818 c 1.1554,0.2622 2.1141,1.0641 2.5764,2.155 0.9959,2.3504 3.7546,3.4243 6.0995,2.4156 2.3686,-1.019 4.0841,-3.1988 4.4827,-5.7462 l 0.2079,-1.3292 c 0.1121,-0.7163 0.1454,-1.4426 0.0994,-2.1661 L 40.8234,23.2211 C 40.607,19.8167 39.3876,16.5526 37.3188,13.8402 L 37.0669,13.51 C 35.3158,11.214 32.9685,9.4422 30.2806,8.38727 27.9571,7.47542 25.4507,7.12735 22.9667,7.37161 L 21.5614,7.50979 C 18.3483,7.82575 15.36,9.30035 13.1544,11.6583 Z"
         stroke="#000000"
         stroke-width="4"
         stroke-linecap="round"
         stroke-linejoin="round"
         id="path3" /></g></g></svg>
